<svg width="56" height="52" viewBox="0 0 56 52" fill="none" xmlns="http://www.w3.org/2000/svg">
<path d="M37.0705 10.0849L37.0705 10.0849L45.2867 17.9654C45.2869 17.9656 45.2871 17.9657 45.2873 17.9659C45.5865 18.2493 45.6219 18.7134 45.3688 19.0389L28.2765 41.0451L28.2764 41.0452C28.2581 41.0687 28.2392 41.0853 28.2248 41.0964C28.2221 41.0984 28.2195 41.1004 28.217 41.1022C28.1376 41.1843 28.041 41.2464 27.9615 41.281C27.8576 41.3263 27.7514 41.3521 27.6387 41.3504C27.5268 41.3487 27.4237 41.32 27.3259 41.2774C27.2267 41.2342 27.1226 41.1491 27.0501 41.0677M37.0705 10.0849L9.91855 19.0105L10.116 18.8572L9.91866 19.0106C9.92756 19.0221 10.021 19.1425 10.1868 19.3562C11.1882 20.6467 14.8312 25.3415 18.4753 30.0357C20.6003 32.7731 22.7257 35.5103 24.3276 37.572C25.1286 38.6028 25.7988 39.4648 26.2726 40.0735C26.7391 40.6727 27.0257 41.04 27.0501 41.0677M37.0705 10.0849L37.0694 10.0839M37.0705 10.0849L37.0694 10.0839M27.0501 41.0677L27.2369 40.9015L27.0503 41.0679C27.0503 41.0678 27.0502 41.0678 27.0501 41.0677ZM37.0694 10.0839C37.0621 10.077 37.0499 10.0647 37.0346 10.0493C36.9944 10.0087 36.933 9.94682 36.8836 9.90521C36.8117 9.84459 36.6833 9.75 36.5186 9.75H18.7688C18.6041 9.75 18.4757 9.84461 18.4038 9.90521C18.3546 9.94674 18.2931 10.0087 18.2529 10.0492C18.2376 10.0646 18.2254 10.0769 18.2181 10.0839L18.2176 10.0843M37.0694 10.0839L18.2176 10.0843M18.2176 10.0843L10.0008 17.9081M18.2176 10.0843L10.0008 17.9081M10.0008 17.9081C10.0007 17.9082 10.0006 17.9083 10.0005 17.9084L10.0008 17.9081ZM18.5303 11.8796L20.9872 17.4692H12.6167L18.5303 11.8796ZM31.5294 17.4692H23.7581L27.6437 11.9444L31.5294 17.4692ZM23.1565 19.0719H32.131L27.6437 37.0212L23.1565 19.0719ZM29.187 11.3527H35.238L32.9107 16.6474L29.187 11.3527ZM26.1005 11.3527L22.3768 16.6474L20.0495 11.3527H26.1005ZM12.1513 19.0719H21.5043L25.9439 36.8301L12.1513 19.0719ZM29.3436 36.8301L33.7831 19.0719H43.1362L29.3436 36.8301ZM42.6708 17.4692H34.3003L36.7572 11.8796L42.6708 17.4692Z" fill="white" stroke="white" stroke-width="0.5" stroke-linecap="round"/>
</svg>
