<svg width="114" height="101" viewBox="0 0 114 101" fill="none" xmlns="http://www.w3.org/2000/svg">
<path d="M113.159 26.4988L86.7361 1.1561C86.4073 0.844434 85.971 0.302826 85.5182 0.302826H28.4456C27.993 0.302826 27.5567 0.844434 27.2277 1.1561L0.805321 26.3146C0.142272 26.9413 0.0635566 28.0619 0.623603 28.782C0.995903 29.2614 55.2698 99.2099 55.6739 99.6631C55.8552 99.8669 56.0999 100.056 56.2816 100.135C56.7716 100.349 57.1817 100.365 57.6824 100.146C57.8641 100.067 58.1086 99.9072 58.2901 99.7033C58.3169 99.6733 58.3569 99.6634 58.3817 99.6315L113.34 28.8728C113.9 28.1525 113.822 27.1255 113.159 26.4988ZM27.9556 4.97874L36.8101 25.1229H6.6437L27.9556 4.97874ZM42.9401 25.1229L56.9819 5.15744L71.0238 25.1229H42.9401ZM72.4398 28.6686L56.9819 90.5006L41.5242 28.6686H72.4398ZM60.3961 3.84854H82.6318L74.0795 23.305L60.3961 3.84854ZM39.8844 23.305L31.3322 3.84854H53.5679L39.8844 23.305ZM37.8691 28.6686L53.2213 90.0776L5.52556 28.6686H37.8691ZM76.0949 28.6686H108.438L60.7427 90.0776L76.0949 28.6686ZM77.1538 25.1229L86.0084 4.97874L107.32 25.1229H77.1538Z" fill="black"/>
</svg>
